<svg width="77" height="20" viewBox="0 0 77 20" fill="none" xmlns="http://www.w3.org/2000/svg">
<g clip-path="url(#clip0_2_1120)">
<path d="M0.676165 1.24605H16.7109C17.0844 1.24605 17.3871 1.55074 17.3871 1.9266V5.1003C17.3871 5.52305 17.2048 5.92331 16.8875 6.2003L7.92079 13.7503H16.7109C17.0844 13.7503 17.3871 14.0494 17.3871 14.4253V18.0688C17.3871 18.4447 17.0844 18.7494 16.7109 18.7494H0.676165C0.302729 18.7494 0 18.4447 0 18.0688V14.9003C0 14.4776 0.18226 14.0773 0.499555 13.8003L9.46631 6.2503H0.676165C0.302729 6.2503 0 5.93866 0 5.5628V1.9266C0 1.55074 0.302729 1.24605 0.676165 1.24605ZM28.5645 0.625305C30.4186 0.625305 32.0715 1.04494 33.4515 1.8118C34.8314 2.57866 35.9383 3.69275 36.7002 5.08163C37.4621 6.47052 37.879 8.13422 37.879 10.0003C37.879 11.8664 37.4621 13.5301 36.7002 14.919C35.9383 16.3079 34.8314 17.4219 33.4515 18.1888C32.0715 18.9557 30.4186 19.3753 28.5645 19.3753C26.7105 19.3753 25.0575 18.9557 23.6776 18.1888C22.2977 17.4219 21.1908 16.3079 20.4288 14.919C19.6669 13.5301 19.25 11.8664 19.25 10.0003C19.25 8.13422 19.6669 6.47052 20.4288 5.08163C21.1908 3.69275 22.2977 2.57866 23.6776 1.8118C25.0575 1.04494 26.7105 0.625305 28.5645 0.625305ZM28.5645 5.6253C27.6776 5.6253 26.899 5.81387 26.2551 6.16446C25.6111 6.51506 25.1018 7.0277 24.7534 7.67585C24.4051 8.32399 24.2177 9.10766 24.2177 10.0003C24.2177 10.893 24.4051 11.6766 24.7534 12.3248C25.1018 12.9729 25.6111 13.4855 26.2551 13.8361C26.899 14.1867 27.6776 14.3753 28.5645 14.3753C29.4514 14.3753 30.23 14.1867 30.874 13.8361C31.5179 13.4855 32.0273 12.9729 32.3756 12.3248C32.7239 11.6766 32.9113 10.893 32.9113 10.0003C32.9113 9.10766 32.7239 8.32399 32.3756 7.67585C32.0273 7.0277 31.5179 6.51506 30.874 6.16446C30.23 5.81387 29.4514 5.6253 28.5645 5.6253ZM48.4355 0.625305C50.2895 0.625305 51.9425 1.04494 53.3224 1.8118C54.7024 2.57866 55.8092 3.69275 56.5712 5.08163C57.3331 6.47052 57.75 8.13422 57.75 10.0003C57.75 11.8664 57.3331 13.5301 56.5712 14.919C55.8092 16.3079 54.7024 17.4219 53.3224 18.1888C51.9425 18.9557 50.2895 19.3753 48.4355 19.3753C46.5814 19.3753 44.9285 18.9557 43.5485 18.1888C42.1686 17.4219 41.0617 16.3079 40.2998 14.919C39.5379 13.5301 39.121 11.8664 39.121 10.0003C39.121 8.13422 39.5379 6.47052 40.2998 5.08163C41.0617 3.69275 42.1686 2.57866 43.5485 1.8118C44.9285 1.04494 46.5814 0.625305 48.4355 0.625305ZM48.4355 5.6253C47.5486 5.6253 46.77 5.81387 46.126 6.16446C45.4821 6.51506 44.9727 7.0277 44.6244 7.67585C44.2761 8.32399 44.0887 9.10766 44.0887 10.0003C44.0887 10.893 44.2761 11.6766 44.6244 12.3248C44.9727 12.9729 45.4821 13.4855 46.126 13.8361C46.77 14.1867 47.5486 14.3753 48.4355 14.3753C49.3224 14.3753 50.101 14.1867 50.7449 13.8361C51.3889 13.4855 51.8982 12.9729 52.2466 12.3248C52.5949 11.6766 52.7823 10.893 52.7823 10.0003C52.7823 9.10766 52.5949 8.32399 52.2466 7.67585C51.8982 7.0277 51.3889 6.51506 50.7449 6.16446C50.101 5.81387 49.3224 5.6253 48.4355 5.6253ZM77.0021 1.92877V18.0685C77.0021 18.4444 76.6994 18.7491 76.3259 18.7491H73.1748C72.7549 18.7491 72.3572 18.5657 72.0819 18.2464L64.5807 9.22248V18.0685C64.5807 18.4444 64.271 18.7491 63.8976 18.7491H60.287C59.9135 18.7491 59.6108 18.4444 59.6108 18.0685V1.92877C59.6108 1.55289 59.9135 1.24818 60.287 1.24818H63.4381C63.8582 1.24818 64.2558 1.43167 64.531 1.7511L72.0323 10.7781V1.92877C72.0323 1.55289 72.3295 1.24818 72.7029 1.24818H76.3259C76.6994 1.24818 77.0021 1.55289 77.0021 1.92877Z" fill="url(#paint0_linear_2_1120)"/>
</g>
<defs>
<linearGradient id="paint0_linear_2_1120" x1="0" y1="10.0003" x2="77.0021" y2="10.0003" gradientUnits="userSpaceOnUse">
<stop stop-color="#3D3F54"/>
<stop offset="1" stop-color="#6339F3"/>
</linearGradient>
<clipPath id="clip0_2_1120">
<rect width="77" height="20" fill="white"/>
</clipPath>
</defs>
</svg>
